<?xml version="1.0" encoding="UTF-8"?>
<!DOCTYPE svg
PUBLIC "-//W3C//DTD SVG 1.1//EN"
       "http://www.w3.org/Graphics/SVG/1.1/DTD/svg11.dtd">
<svg viewBox="325 53 672 291" width="347px" height="238px" xmlns="http://www.w3.org/2000/svg" version="1.1">
   <line x1="406" y1="101" x2="416" y2="101" style="stroke:#0bf;stroke-width:1;"/>
   <line x1="574" y1="118" x2="584" y2="118" style="stroke:#0bf;stroke-width:1;"/>
   <line x1="416" y1="101" x2="574" y2="118" style="stroke:#0bf;stroke-width:1;"/>
   <line x1="413.5" y1="101" x2="409.96446609407" y2="104.53553390593" style="stroke:#0bf;stroke-width:2;"/>
   <line x1="413.5" y1="101" x2="409.96446609407" y2="97.464466094067" style="stroke:#0bf;stroke-width:2;"/>
   <line x1="579" y1="118" x2="575.46446609407" y2="121.53553390593" style="stroke:#0bf;stroke-width:2;"/>
   <line x1="579" y1="118" x2="575.46446609407" y2="114.46446609407" style="stroke:#0bf;stroke-width:2;"/>
   <line x1="584" y1="118" x2="574" y2="118" style="stroke:#cb0;stroke-width:1;"/>
   <line x1="416" y1="101" x2="406" y2="101" style="stroke:#cb0;stroke-width:1;"/>
   <line x1="574" y1="118" x2="416" y2="101" style="stroke:#cb0;stroke-width:1;"/>
   <line x1="576.5" y1="118" x2="580.03553390593" y2="121.53553390593" style="stroke:#cb0;stroke-width:2;"/>
   <line x1="576.5" y1="118" x2="580.03553390593" y2="114.46446609407" style="stroke:#cb0;stroke-width:2;"/>
   <line x1="411" y1="101" x2="414.53553390593" y2="104.53553390593" style="stroke:#cb0;stroke-width:2;"/>
   <line x1="411" y1="101" x2="414.53553390593" y2="97.464466094067" style="stroke:#cb0;stroke-width:2;"/>
   <rect width="66" height="20" x="340" y="71" style="fill:#007;stroke:black;"/>
   <text width="66" height="20" x="345" y="85" style="fill:#fff;" font-family="Arial" font-size="16px"> autor</text>
   <rect width="66" height="20" x="340" y="91" style="fill:#aea;stroke:black;"/>
   <text width="66" height="20" x="345" y="105" style="fill:black;" font-family="Arial" font-size="16px">id_autor</text>
   <rect width="66" height="20" x="584" y="68" style="fill:#007;stroke:black;"/>
   <text width="66" height="20" x="589" y="82" style="fill:#fff;" font-family="Arial" font-size="16px"> libros</text>
   <rect width="66" height="20" x="584" y="88" style="fill:#aea;stroke:black;"/>
   <text width="66" height="20" x="589" y="102" style="fill:black;" font-family="Arial" font-size="16px">id_libros</text>
   <rect width="66" height="20" x="584" y="108" style="fill:none;stroke:black;"/>
   <text width="66" height="20" x="589" y="122" style="fill:black;" font-family="Arial" font-size="16px">id_autor</text>
   <rect width="66" height="20" x="591" y="236" style="fill:#007;stroke:black;"/>
   <text width="66" height="20" x="596" y="250" style="fill:#fff;" font-family="Arial" font-size="16px"> registro</text>
   <rect width="66" height="20" x="591" y="256" style="fill:#aea;stroke:black;"/>
   <text width="66" height="20" x="596" y="270" style="fill:black;" font-family="Arial" font-size="16px">email</text>
</svg>
