<?xml version="1.0" encoding="UTF-8"?>
<!DOCTYPE svg
PUBLIC "-//W3C//DTD SVG 1.1//EN"
       "http://www.w3.org/Graphics/SVG/1.1/DTD/svg11.dtd">
<svg viewBox="325 53 736 351" width="411px" height="298px" xmlns="http://www.w3.org/2000/svg" version="1.1">
   <line x1="462" y1="101" x2="472" y2="101" style="stroke:#0bf;stroke-width:1;"/>
   <line x1="574" y1="158" x2="584" y2="158" style="stroke:#0bf;stroke-width:1;"/>
   <line x1="472" y1="101" x2="574" y2="158" style="stroke:#0bf;stroke-width:1;"/>
   <line x1="469.5" y1="101" x2="465.96446609407" y2="104.53553390593" style="stroke:#0bf;stroke-width:2;"/>
   <line x1="469.5" y1="101" x2="465.96446609407" y2="97.464466094067" style="stroke:#0bf;stroke-width:2;"/>
   <line x1="579" y1="158" x2="575.46446609407" y2="161.53553390593" style="stroke:#0bf;stroke-width:2;"/>
   <line x1="579" y1="158" x2="575.46446609407" y2="154.46446609407" style="stroke:#0bf;stroke-width:2;"/>
   <line x1="584" y1="158" x2="574" y2="158" style="stroke:#cb0;stroke-width:1;"/>
   <line x1="472" y1="101" x2="462" y2="101" style="stroke:#cb0;stroke-width:1;"/>
   <line x1="574" y1="158" x2="472" y2="101" style="stroke:#cb0;stroke-width:1;"/>
   <line x1="576.5" y1="158" x2="580.03553390593" y2="161.53553390593" style="stroke:#cb0;stroke-width:2;"/>
   <line x1="576.5" y1="158" x2="580.03553390593" y2="154.46446609407" style="stroke:#cb0;stroke-width:2;"/>
   <line x1="467" y1="101" x2="470.53553390593" y2="104.53553390593" style="stroke:#cb0;stroke-width:2;"/>
   <line x1="467" y1="101" x2="470.53553390593" y2="97.464466094067" style="stroke:#cb0;stroke-width:2;"/>
   <rect width="122" height="20" x="340" y="71" style="fill:#007;stroke:black;"/>
   <text width="122" height="20" x="345" y="85" style="fill:#fff;" font-family="Arial" font-size="16px"> autor</text>
   <rect width="122" height="20" x="340" y="91" style="fill:#aea;stroke:black;"/>
   <text width="122" height="20" x="345" y="105" style="fill:black;" font-family="Arial" font-size="16px">id_autor</text>
   <rect width="122" height="20" x="340" y="111" style="fill:none;stroke:black;"/>
   <text width="122" height="20" x="345" y="125" style="fill:black;" font-family="Arial" font-size="16px">nombreApellido</text>
   <rect width="122" height="20" x="340" y="131" style="fill:none;stroke:black;"/>
   <text width="122" height="20" x="345" y="145" style="fill:black;" font-family="Arial" font-size="16px">nacionalidad</text>
   <rect width="137" height="20" x="584" y="68" style="fill:#007;stroke:black;"/>
   <text width="137" height="20" x="589" y="82" style="fill:#fff;" font-family="Arial" font-size="16px"> libros</text>
   <rect width="137" height="20" x="584" y="88" style="fill:none;stroke:black;"/>
   <text width="137" height="20" x="589" y="102" style="fill:black;" font-family="Arial" font-size="16px">titulo</text>
   <rect width="137" height="20" x="584" y="108" style="fill:none;stroke:black;"/>
   <text width="137" height="20" x="589" y="122" style="fill:black;" font-family="Arial" font-size="16px">AñoDePublicacion</text>
   <rect width="137" height="20" x="584" y="128" style="fill:none;stroke:black;"/>
   <text width="137" height="20" x="589" y="142" style="fill:black;" font-family="Arial" font-size="16px">descripcion</text>
   <rect width="137" height="20" x="584" y="148" style="fill:none;stroke:black;"/>
   <text width="137" height="20" x="589" y="162" style="fill:black;" font-family="Arial" font-size="16px">id_autor</text>
   <rect width="137" height="20" x="584" y="168" style="fill:#aea;stroke:black;"/>
   <text width="137" height="20" x="589" y="182" style="fill:black;" font-family="Arial" font-size="16px">id_libros</text>
   <rect width="85" height="20" x="591" y="236" style="fill:#007;stroke:black;"/>
   <text width="85" height="20" x="596" y="250" style="fill:#fff;" font-family="Arial" font-size="16px"> registro</text>
   <rect width="85" height="20" x="591" y="256" style="fill:none;stroke:black;"/>
   <text width="85" height="20" x="596" y="270" style="fill:black;" font-family="Arial" font-size="16px">nombre</text>
   <rect width="85" height="20" x="591" y="276" style="fill:#aea;stroke:black;"/>
   <text width="85" height="20" x="596" y="290" style="fill:black;" font-family="Arial" font-size="16px">email</text>
   <rect width="85" height="20" x="591" y="296" style="fill:none;stroke:black;"/>
   <text width="85" height="20" x="596" y="310" style="fill:black;" font-family="Arial" font-size="16px">contraseña</text>
   <rect width="85" height="20" x="591" y="316" style="fill:none;stroke:black;"/>
   <text width="85" height="20" x="596" y="330" style="fill:black;" font-family="Arial" font-size="16px">fecha</text>
</svg>
